<mxfile host="app.diagrams.net" agent="Mozilla/5.0 (Windows NT 10.0; Win64; x64) AppleWebKit/537.36 (KHTML, like Gecko) Chrome/131.0.0.0 Safari/537.36" version="25.0.3">
  <diagram name="Trang-1" id="i0uck4UighJG1DTZ7mUG">
    <mxGraphModel dx="1320" dy="672" grid="1" gridSize="10" guides="1" tooltips="1" connect="1" arrows="1" fold="1" page="1" pageScale="1" pageWidth="827" pageHeight="1169" math="0" shadow="0">
      <root>
        <mxCell id="0" />
        <mxCell id="1" parent="0" />
        <mxCell id="aQD9TR6NImHBaMUmQkw7-3" value="P. Cơ sở Vật chất&lt;br&gt;Tài sản" style="rounded=0;whiteSpace=wrap;html=1;fontStyle=1" vertex="1" parent="1">
          <mxGeometry x="110" y="100" width="120" height="220" as="geometry" />
        </mxCell>
        <mxCell id="aQD9TR6NImHBaMUmQkw7-4" value="BP Sự kiện" style="rounded=0;whiteSpace=wrap;html=1;fontStyle=1" vertex="1" parent="1">
          <mxGeometry x="294" y="100" width="120" height="220" as="geometry" />
        </mxCell>
        <mxCell id="aQD9TR6NImHBaMUmQkw7-5" value="P. Kế toán" style="rounded=0;whiteSpace=wrap;html=1;fontStyle=1" vertex="1" parent="1">
          <mxGeometry x="460" y="100" width="120" height="220" as="geometry" />
        </mxCell>
        <mxCell id="aQD9TR6NImHBaMUmQkw7-6" value="P. Hành chính&amp;nbsp;&lt;div&gt;- Nhân sự&lt;/div&gt;" style="rounded=0;whiteSpace=wrap;html=1;fontStyle=1" vertex="1" parent="1">
          <mxGeometry x="294" y="430" width="120" height="220" as="geometry" />
        </mxCell>
        <mxCell id="aQD9TR6NImHBaMUmQkw7-7" value="BP Thể chất" style="rounded=0;whiteSpace=wrap;html=1;rotation=0;fontStyle=1" vertex="1" parent="1">
          <mxGeometry x="320" y="340" width="260" height="70" as="geometry" />
        </mxCell>
        <mxCell id="aQD9TR6NImHBaMUmQkw7-8" value="P. Mua hàng" style="rounded=0;whiteSpace=wrap;html=1;fontStyle=1" vertex="1" parent="1">
          <mxGeometry x="460" y="430" width="120" height="220" as="geometry" />
        </mxCell>
        <mxCell id="aQD9TR6NImHBaMUmQkw7-9" value="P. R&amp;amp;D" style="rounded=0;whiteSpace=wrap;html=1;fontStyle=1" vertex="1" parent="1">
          <mxGeometry x="110" y="430" width="120" height="220" as="geometry" />
        </mxCell>
        <mxCell id="aQD9TR6NImHBaMUmQkw7-10" value="" style="fontColor=#0066CC;verticalAlign=top;verticalLabelPosition=bottom;labelPosition=center;align=center;html=1;outlineConnect=0;fillColor=#CCCCCC;strokeColor=#6881B3;gradientColor=none;gradientDirection=north;strokeWidth=2;shape=mxgraph.networks.copier;" vertex="1" parent="1">
          <mxGeometry x="414" y="730" width="150" height="160" as="geometry" />
        </mxCell>
        <mxCell id="aQD9TR6NImHBaMUmQkw7-11" value="- Quản lý theo Code&lt;div&gt;- Báo cáo số lượng bản in theo phòng ban hàng tháng&lt;/div&gt;" style="rounded=0;whiteSpace=wrap;html=1;fontSize=16;" vertex="1" parent="1">
          <mxGeometry x="580" y="730" width="220" height="160" as="geometry" />
        </mxCell>
        <mxCell id="aQD9TR6NImHBaMUmQkw7-12" value="Mỗi Phòng/ban sử dụng 1 mã code để in/ấn" style="rounded=0;whiteSpace=wrap;html=1;fontSize=18;fontStyle=1;labelBackgroundColor=#FF9933;" vertex="1" parent="1">
          <mxGeometry x="60" y="345" width="220" height="60" as="geometry" />
        </mxCell>
      </root>
    </mxGraphModel>
  </diagram>
</mxfile>
